<?xml version="1.0" encoding="utf-8"?>
<!-- Generator: Adobe Illustrator 25.4.1, SVG Export Plug-In . SVG Version: 6.00 Build 0)  -->
<svg version="1.1" id="레이어_1" xmlns="http://www.w3.org/2000/svg" xmlns:xlink="http://www.w3.org/1999/xlink" x="0px"
	 y="0px" viewBox="0 0 280.4 32.2" style="enable-background:new 0 0 280.4 32.2;" xml:space="preserve">
<style type="text/css">
	.st0{fill:#8CC63F;}
</style>
<g transform="translate(-51.742 -79.547)">
	<circle class="st0" cx="74.7" cy="86" r="3.8"/>
	<circle cx="74.7" cy="108" r="3.8"/>
	<circle cx="74.7" cy="97" r="3.8"/>
	<circle cx="63.6" cy="97" r="2.9"/>
	<circle cx="54" cy="97" r="2.2"/>
	<circle cx="63.6" cy="108" r="2.9"/>
	<circle cx="54" cy="108" r="2.2"/>
	<circle cx="63.6" cy="86" r="2.9"/>
	<circle cx="54" cy="86" r="2.2"/>
	<g transform="translate(0 1)">
		<path d="M98.1,97.6c0-6.5,6.7-10.5,14-10.5c8,0,12.6,3.9,12.6,9.5c0,0.7-0.1,1.5-0.3,2.2h-22.5v-3H121l-1.2,1
			c0-4.3-2.9-6.5-7.5-6.5c-4.8,0-8.7,2.6-8.7,7.3c0,4.9,4.2,7.3,10.1,7.3c2.8,0,5.5-0.6,8-1.8l2,2.6c-3.3,1.6-7,2.4-10.7,2.4
			C104.6,108.1,98.1,104.2,98.1,97.6z"/>
		<path d="M133.5,97.6c0-6.7,7.1-10.5,15.4-10.5c3.6-0.1,7.1,0.9,10,2.9l-2.7,2.6c-2.1-1.4-4.6-2.1-7.1-2.1c-5.9,0-9.9,2.9-9.9,7.2
			c0,4.3,4,7.1,9.8,7.1c2.9,0,5.7-0.8,8.1-2.4l2.4,2.6c-3.3,2-7.1,3.1-11,3.1C140,108.1,133.5,104.3,133.5,97.6z"/>
		<path d="M167.1,97.6c0-6.7,6.4-10.5,13.6-10.5s13.6,3.8,13.6,10.5c0,6.6-6.4,10.5-13.6,10.5S167.1,104.3,167.1,97.6z M188.7,97.6
			c0-4.3-3.1-7.2-7.9-7.2s-7.9,2.9-7.9,7.2c0,4.3,3.1,7.1,7.9,7.1S188.7,101.9,188.7,97.6z"/>
		<path d="M201.9,97.6c0-6.5,5.9-10.5,12.2-10.5c2.8,0,5.6,0.8,7.9,2.4h0.1l-0.3-3.5v-7.5h5.6v29.1h-4.6l-0.4-2.5h-0.2
			c-2.5,1.9-5.5,2.9-8.6,3C206.6,108.1,201.9,104.3,201.9,97.6z M221.8,102v-9.5c-1.9-1.3-4.2-2.1-6.5-2.1c-4.3,0-7.8,2.7-7.8,7.1
			c0,4.6,2.8,7.1,7.3,7.1C217.5,104.7,219.9,103.7,221.8,102z"/>
		<path d="M237.6,102.3c0-4.5,5.6-6.7,19.4-7.5c-0.2-2.5-2-4.5-6.9-4.5c-3.2,0.1-6.4,0.9-9.3,2.3l-2.1-2.7c3.9-1.8,8.1-2.8,12.4-2.8
			c7.5,0,11.5,3.2,11.5,8.5v12.1H258l-0.4-2.6h-0.2c-3.2,1.9-6.8,3-10.5,3.1C241.7,108.1,237.6,105.9,237.6,102.3z M257,102.2v-4.7
			c-10.8,0.6-13.9,2.1-13.9,4.5c0,2,2.5,2.8,5.4,2.8C251.5,104.8,254.5,103.8,257,102.2L257,102.2z"/>
		<path d="M279.3,99.7v-8.8h-7.5v-3l7.8-0.2l0.7-6.3h4.6v6.3h12.9v3.3h-12.9v8.9c0,3.4,1.7,5.1,6.6,5.1c2.1,0,4.2-0.3,6.2-0.9l1.1,3
			c-2.8,0.8-5.7,1.2-8.7,1.2C282,108.1,279.3,104.7,279.3,99.7z"/>
		<path d="M307.1,102.3c0-4.5,5.6-6.7,19.4-7.5c-0.2-2.5-2-4.5-6.9-4.5c-3.2,0.1-6.4,0.9-9.3,2.3l-2.1-2.7c3.9-1.8,8.1-2.8,12.4-2.8
			c7.5,0,11.5,3.2,11.5,8.5v12.1h-4.6l-0.4-2.6h-0.2c-3.2,1.9-6.8,3-10.5,3.1C311.2,108.1,307.1,105.9,307.1,102.3z M326.5,102.2
			v-4.7c-10.8,0.6-13.9,2.1-13.9,4.5c0,2,2.5,2.8,5.4,2.8C321,104.8,324,103.8,326.5,102.2L326.5,102.2z"/>
	</g>
</g>
</svg>
